<svg viewBox="0 0 512 512" xmlns="http://www.w3.org/2000/svg">
    <defs>
        <linearGradient id="bg" x1="0%" y1="0%" x2="100%" y2="100%">
            <stop offset="0%" style="stop-color:#F7931A"/>
            <stop offset="100%" style="stop-color:#E8720C"/>
        </linearGradient>
    </defs>
    <rect width="512" height="512" fill="url(#bg)"/>
    <!-- Bitcoin B - estilo clásico moneda -->
    <g transform="translate(256,235)">
        <path d="M30,-65 L30,-65 C55,-65 75,-50 75,-30 C75,-12 62,0 45,4 C68,8 85,25 85,48 C85,72 65,90 35,90 L-55,90 L-55,-65 Z M-20,-35 L-20,-5 L25,-5 C40,-5 50,-15 50,-20 C50,-28 40,-35 25,-35 Z M-20,20 L-20,60 L30,60 C48,60 58,50 58,40 C58,30 48,20 30,20 Z" fill="white" opacity="0.95"/>
        <!-- Barras verticales -->
        <rect x="-5" y="-90" width="12" height="30" rx="6" fill="white" opacity="0.95"/>
        <rect x="20" y="-90" width="12" height="30" rx="6" fill="white" opacity="0.95"/>
        <rect x="-5" y="85" width="12" height="30" rx="6" fill="white" opacity="0.95"/>
        <rect x="20" y="85" width="12" height="30" rx="6" fill="white" opacity="0.95"/>
    </g>
    <polyline points="80,420 140,400 200,410 260,370 320,380 380,340 432,320" fill="none" stroke="white" stroke-width="6" stroke-linecap="round" stroke-linejoin="round" opacity="0.5"/>
</svg>
